<?xml version="1.0" encoding="UTF-8"?>
<!-- Generator: Adobe Illustrator 26.0.1, SVG Export Plug-In . SVG Version: 6.00 Build 0)  -->
<svg xmlns="http://www.w3.org/2000/svg" xmlns:xlink="http://www.w3.org/1999/xlink" version="1.1" id="Capa_1" x="0px" y="0px" viewBox="0 0 24 24" style="enable-background:new 0 0 24 24;" xml:space="preserve" width="512" height="512">
<g>
	<path style="fill-rule:evenodd;clip-rule:evenodd;" d="M12,0C5.373,0,0,5.373,0,12s5.373,12,12,12s12-5.373,12-12S18.627,0,12,0z M8.339,18.337H5.667v-8.59h2.672V18.337z M7.003,8.574c-0.856,0-1.548-0.694-1.548-1.548s0.694-1.548,1.548-1.548c0.854,0,1.548,0.694,1.548,1.548S7.857,8.574,7.003,8.574z M18.338,18.337h-2.669V14.16c0-0.996-0.018-2.277-1.388-2.277c-1.39,0-1.601,1.086-1.601,2.207v4.248h-2.667v-8.59h2.559v1.174h0.037c0.356-0.675,1.227-1.387,2.526-1.387c2.703,0,3.203,1.778,3.203,4.092V18.337z"/>
</g>















</svg>
